<?xml version="1.0" encoding="UTF-8" standalone="no"?><svg xmlns="http://www.w3.org/2000/svg" xmlns:xlink="http://www.w3.org/1999/xlink" contentScriptType="application/ecmascript" contentStyleType="text/css" height="1027px" preserveAspectRatio="none" style="width:879px;height:1027px;" version="1.1" viewBox="0 0 879 1027" width="879px" zoomAndPan="magnify"><defs/><g><ellipse cx="762.8152" cy="985.8774" fill="#F8F8F8" rx="37.6482" ry="12.8774" style="stroke: #383838; stroke-width: 0.5;"/><text fill="#000000" font-family="Tahoma, sans-serif" font-size="12" lengthAdjust="spacingAndGlyphs" textLength="49" x="738.3152" y="989.3618">apiError</text><ellipse cx="581.3379" cy="914.0342" fill="#F8F8F8" rx="63.1709" ry="15.0342" style="stroke: #383838; stroke-width: 0.5;"/><text fill="#000000" font-family="Tahoma, sans-serif" font-size="12" lengthAdjust="spacingAndGlyphs" textLength="98" x="532.3379" y="917.5186">authMiddleware</text><ellipse cx="581.1635" cy="607.1993" fill="#F8F8F8" rx="68.9965" ry="16.1993" style="stroke: #383838; stroke-width: 0.5;"/><text fill="#000000" font-family="Tahoma, sans-serif" font-size="12" lengthAdjust="spacingAndGlyphs" textLength="112" x="525.1635" y="610.6837">carBodyController</text><ellipse cx="340.8201" cy="553.1306" fill="#F8F8F8" rx="61.1531" ry="14.6306" style="stroke: #383838; stroke-width: 0.5;"/><text fill="#000000" font-family="Tahoma, sans-serif" font-size="12" lengthAdjust="spacingAndGlyphs" textLength="93" x="294.3201" y="556.615">carBodyRouter</text><ellipse cx="581.2977" cy="660.1261" fill="#F8F8F8" rx="71.1307" ry="16.6261" style="stroke: #383838; stroke-width: 0.5;"/><text fill="#000000" font-family="Tahoma, sans-serif" font-size="12" lengthAdjust="spacingAndGlyphs" textLength="117" x="522.7977" y="663.6105">carBrandController</text><ellipse cx="340.8379" cy="603.0342" fill="#F8F8F8" rx="63.1709" ry="15.0342" style="stroke: #383838; stroke-width: 0.5;"/><text fill="#000000" font-family="Tahoma, sans-serif" font-size="12" lengthAdjust="spacingAndGlyphs" textLength="98" x="291.8379" y="606.5186">carBrandRouter</text><ellipse cx="581.144" cy="710.1954" fill="#F8F8F8" rx="56.477" ry="13.6954" style="stroke: #383838; stroke-width: 0.5;"/><text fill="#000000" font-family="Tahoma, sans-serif" font-size="12" lengthAdjust="spacingAndGlyphs" textLength="81" x="540.644" y="713.6798">carController</text><ellipse cx="340.5076" cy="650.8774" fill="#F8F8F8" rx="46.8406" ry="12.8774" style="stroke: #383838; stroke-width: 0.5;"/><text fill="#000000" font-family="Tahoma, sans-serif" font-size="12" lengthAdjust="spacingAndGlyphs" textLength="62" x="309.5076" y="654.3618">carRouter</text><ellipse cx="580.941" cy="759.9548" fill="#F8F8F8" rx="70.274" ry="16.4548" style="stroke: #383838; stroke-width: 0.5;"/><text fill="#000000" font-family="Tahoma, sans-serif" font-size="12" lengthAdjust="spacingAndGlyphs" textLength="115" x="523.441" y="763.4392">carWashController</text><ellipse cx="340.5264" cy="698.8719" fill="#F8F8F8" rx="62.3594" ry="14.8719" style="stroke: #383838; stroke-width: 0.5;"/><text fill="#000000" font-family="Tahoma, sans-serif" font-size="12" lengthAdjust="spacingAndGlyphs" textLength="96" x="292.5264" y="702.3563">carWashRouter</text><ellipse cx="581.1656" cy="553.1997" fill="#F8F8F8" rx="78.9986" ry="18.1997" style="stroke: #383838; stroke-width: 0.5;"/><text fill="#000000" font-family="Tahoma, sans-serif" font-size="12" lengthAdjust="spacingAndGlyphs" textLength="135" x="513.6656" y="556.6841">checkRoleMiddleware</text><ellipse cx="581.3688" cy="813.0404" fill="#F8F8F8" rx="70.7018" ry="16.5404" style="stroke: #383838; stroke-width: 0.5;"/><text fill="#000000" font-family="Tahoma, sans-serif" font-size="12" lengthAdjust="spacingAndGlyphs" textLength="116" x="523.3688" y="816.5247">clientCarController</text><ellipse cx="340.4314" cy="748.9529" fill="#F8F8F8" rx="62.7644" ry="14.9529" style="stroke: #383838; stroke-width: 0.5;"/><text fill="#000000" font-family="Tahoma, sans-serif" font-size="12" lengthAdjust="spacingAndGlyphs" textLength="97" x="291.9314" y="752.4373">clientCarRouter</text><ellipse cx="581.2207" cy="864.2107" fill="#F8F8F8" rx="61.5537" ry="14.7107" style="stroke: #383838; stroke-width: 0.5;"/><text fill="#000000" font-family="Tahoma, sans-serif" font-size="12" lengthAdjust="spacingAndGlyphs" textLength="94" x="534.2207" y="867.6951">clientController</text><ellipse cx="340.9094" cy="797.2485" fill="#F8F8F8" rx="54.2424" ry="13.2485" style="stroke: #383838; stroke-width: 0.5;"/><text fill="#000000" font-family="Tahoma, sans-serif" font-size="12" lengthAdjust="spacingAndGlyphs" textLength="75" x="303.4094" y="800.7329">clientRouter</text><ellipse cx="854.0085" cy="238.9732" fill="#F8F8F8" rx="14.8415" ry="12.4732" style="stroke: #383838; stroke-width: 0.5;"/><text fill="#000000" font-family="Tahoma, sans-serif" font-size="12" lengthAdjust="spacingAndGlyphs" textLength="16" x="846.0085" y="242.4576">db</text><ellipse cx="581.0883" cy="173.7843" fill="#F8F8F8" rx="69.4213" ry="16.2843" style="stroke: #383838; stroke-width: 0.5;"/><text fill="#000000" font-family="Tahoma, sans-serif" font-size="12" lengthAdjust="spacingAndGlyphs" textLength="113" x="524.5883" y="177.2686">discountController</text><ellipse cx="340.7207" cy="199.2107" fill="#F8F8F8" rx="61.5537" ry="14.7107" style="stroke: #383838; stroke-width: 0.5;"/><text fill="#000000" font-family="Tahoma, sans-serif" font-size="12" lengthAdjust="spacingAndGlyphs" textLength="94" x="293.7207" y="202.6951">discountRouter</text><ellipse cx="117.716" cy="755.9098" fill="#F8F8F8" rx="87.549" ry="19.9098" style="stroke: #383838; stroke-width: 0.5;"/><text fill="#000000" font-family="Tahoma, sans-serif" font-size="12" lengthAdjust="spacingAndGlyphs" textLength="154" x="40.716" y="759.3942">ErrorHandlingMiddleware</text><ellipse cx="117.7442" cy="241.8774" fill="#F8F8F8" rx="30.5772" ry="12.8774" style="stroke: #383838; stroke-width: 0.5;"/><text fill="#000000" font-family="Tahoma, sans-serif" font-size="12" font-weight="bold" lengthAdjust="spacingAndGlyphs" textLength="39" x="98.2442" y="245.3618">index</text><ellipse cx="762.4868" cy="441.8774" fill="#F8F8F8" rx="34.8198" ry="12.8774" style="stroke: #383838; stroke-width: 0.5;"/><text fill="#000000" font-family="Tahoma, sans-serif" font-size="12" lengthAdjust="spacingAndGlyphs" textLength="45" x="739.9868" y="445.3618">models</text><ellipse cx="581.1228" cy="225.7912" fill="#F8F8F8" rx="61.9558" ry="14.7912" style="stroke: #383838; stroke-width: 0.5;"/><text fill="#000000" font-family="Tahoma, sans-serif" font-size="12" lengthAdjust="spacingAndGlyphs" textLength="95" x="533.6228" y="229.2755">orderController</text><ellipse cx="340.7765" cy="246.8219" fill="#F8F8F8" rx="54.6095" ry="13.3219" style="stroke: #383838; stroke-width: 0.5;"/><text fill="#000000" font-family="Tahoma, sans-serif" font-size="12" lengthAdjust="spacingAndGlyphs" textLength="76" x="302.7765" y="250.3063">orderRouter</text><ellipse cx="581.3215" cy="284.9309" fill="#F8F8F8" rx="105.1545" ry="23.4309" style="stroke: #383838; stroke-width: 0.5;"/><text fill="#000000" font-family="Tahoma, sans-serif" font-size="12" lengthAdjust="spacingAndGlyphs" textLength="192" x="485.3215" y="288.4153">orderServiceRelationController</text><ellipse cx="340.4504" cy="302.1567" fill="#F8F8F8" rx="96.2834" ry="21.6567" style="stroke: #383838; stroke-width: 0.5;"/><text fill="#000000" font-family="Tahoma, sans-serif" font-size="12" lengthAdjust="spacingAndGlyphs" textLength="173" x="253.9504" y="305.641">orderServiceRelationRouter</text><ellipse cx="581.2337" cy="342.8133" fill="#F8F8F8" rx="59.5667" ry="14.3133" style="stroke: #383838; stroke-width: 0.5;"/><text fill="#000000" font-family="Tahoma, sans-serif" font-size="12" lengthAdjust="spacingAndGlyphs" textLength="89" x="536.7337" y="346.2977">postController</text><ellipse cx="340.6093" cy="356.8885" fill="#F8F8F8" rx="52.4423" ry="12.8885" style="stroke: #383838; stroke-width: 0.5;"/><text fill="#000000" font-family="Tahoma, sans-serif" font-size="12" lengthAdjust="spacingAndGlyphs" textLength="70" x="305.6093" y="360.3728">postRouter</text><ellipse cx="581.1742" cy="123.0014" fill="#F8F8F8" rx="58.0072" ry="14.0014" style="stroke: #383838; stroke-width: 0.5;"/><text fill="#000000" font-family="Tahoma, sans-serif" font-size="12" lengthAdjust="spacingAndGlyphs" textLength="85" x="538.6742" y="126.4858">roleController</text><ellipse cx="340.836" cy="136.8774" fill="#F8F8F8" rx="49.669" ry="12.8774" style="stroke: #383838; stroke-width: 0.5;"/><text fill="#000000" font-family="Tahoma, sans-serif" font-size="12" lengthAdjust="spacingAndGlyphs" textLength="66" x="307.836" y="140.3618">roleRouter</text><ellipse cx="117.4513" cy="475.8774" fill="#F8F8F8" rx="31.2843" ry="12.8774" style="stroke: #383838; stroke-width: 0.5;"/><text fill="#000000" font-family="Tahoma, sans-serif" font-size="12" lengthAdjust="spacingAndGlyphs" textLength="40" x="97.4513" y="479.3618">routes</text><ellipse cx="581.2337" cy="391.8133" fill="#F8F8F8" rx="59.5667" ry="14.3133" style="stroke: #383838; stroke-width: 0.5;"/><text fill="#000000" font-family="Tahoma, sans-serif" font-size="12" lengthAdjust="spacingAndGlyphs" textLength="89" x="536.7337" y="395.2977">staffController</text><ellipse cx="340.6093" cy="402.8885" fill="#F8F8F8" rx="52.4423" ry="12.8885" style="stroke: #383838; stroke-width: 0.5;"/><text fill="#000000" font-family="Tahoma, sans-serif" font-size="12" lengthAdjust="spacingAndGlyphs" textLength="70" x="305.6093" y="406.3728">staffRouter</text><ellipse cx="581.155" cy="442.1976" fill="#F8F8F8" rx="63.988" ry="15.1976" style="stroke: #383838; stroke-width: 0.5;"/><text fill="#000000" font-family="Tahoma, sans-serif" font-size="12" lengthAdjust="spacingAndGlyphs" textLength="100" x="531.155" y="445.682">statusController</text><ellipse cx="340.644" cy="450.1954" fill="#F8F8F8" rx="56.477" ry="13.6954" style="stroke: #383838; stroke-width: 0.5;"/><text fill="#000000" font-family="Tahoma, sans-serif" font-size="12" lengthAdjust="spacingAndGlyphs" textLength="81" x="300.144" y="453.6798">statusRouter</text><ellipse cx="581.3412" cy="963.2348" fill="#F8F8F8" rx="59.1742" ry="14.2348" style="stroke: #383838; stroke-width: 0.5;"/><text fill="#000000" font-family="Tahoma, sans-serif" font-size="12" lengthAdjust="spacingAndGlyphs" textLength="88" x="537.3412" y="966.7192">userController</text><ellipse cx="340.4574" cy="877.8774" fill="#F8F8F8" rx="51.7904" ry="12.8774" style="stroke: #383838; stroke-width: 0.5;"/><text fill="#000000" font-family="Tahoma, sans-serif" font-size="12" lengthAdjust="spacingAndGlyphs" textLength="69" x="305.9574" y="881.3618">userRouter</text><ellipse cx="580.9474" cy="496.0561" fill="#F8F8F8" rx="80.7804" ry="18.5561" style="stroke: #383838; stroke-width: 0.5;"/><text fill="#000000" font-family="Tahoma, sans-serif" font-size="12" lengthAdjust="spacingAndGlyphs" textLength="139" x="511.4474" y="499.5405">washServiceController</text><ellipse cx="340.5899" cy="500.8846" fill="#F8F8F8" rx="72.4229" ry="16.8846" style="stroke: #383838; stroke-width: 0.5;"/><text fill="#000000" font-family="Tahoma, sans-serif" font-size="12" lengthAdjust="spacingAndGlyphs" textLength="120" x="280.5899" y="504.369">washServiceRouter</text><!--MD5=[dfd1473eb29ae36dd80e187c00066921]
link carBodyController to models--><path d="M644,600.317 C658.913,596.446 674.029,590.403 686.167,581 C726.802,549.522 748.377,489.769 757.041,459.914 " fill="none" id="carBodyController-&gt;models" style="stroke: #000000; stroke-width: 0.5;"/><polygon fill="#000000" points="758.416,455.044,752.1215,462.6189,757.0577,459.856,759.8206,464.7922,758.416,455.044" style="stroke: #000000; stroke-width: 0.5;"/><!--MD5=[5072908a9be1133068b985d0cc680382]
link carBodyRouter to carBodyController--><path d="M385.412,562.904 C424.955,571.858 483.315,585.071 525.835,594.698 " fill="none" id="carBodyRouter-&gt;carBodyController" style="stroke: #000000; stroke-width: 0.5;"/><polygon fill="#000000" points="530.94,595.854,523.0455,589.9653,526.0634,594.7498,521.2789,597.7678,530.94,595.854" style="stroke: #000000; stroke-width: 0.5;"/><!--MD5=[8312141520f7567d86c071d1b9e3b4c0]
link carBodyRouter to checkRoleMiddleware--><path d="M401.851,553 C430.55,553 465.355,553 496.57,553 " fill="none" id="carBodyRouter-&gt;checkRoleMiddleware" style="stroke: #000000; stroke-width: 0.5;"/><polygon fill="#000000" points="501.95,553,492.95,549,496.95,553,492.95,557,501.95,553" style="stroke: #000000; stroke-width: 0.5;"/><!--MD5=[8fa1acab997da48068bbaf20b380b2f5]
link carBrandController to models--><path d="M646.196,653.282 C660.641,649.231 674.989,642.887 686.167,633 C738.734,586.505 755.099,498.603 759.856,460.448 " fill="none" id="carBrandController-&gt;models" style="stroke: #000000; stroke-width: 0.5;"/><polygon fill="#000000" points="760.477,455.19,755.4476,463.6579,759.8897,460.1554,763.3922,464.5975,760.477,455.19" style="stroke: #000000; stroke-width: 0.5;"/><!--MD5=[f92c7f8783066d9c31737c3b079d05cb]
link carBrandRouter to carBrandController--><path d="M385.69,613.521 C425.267,622.98 483.53,636.904 525.962,647.045 " fill="none" id="carBrandRouter-&gt;carBrandController" style="stroke: #000000; stroke-width: 0.5;"/><polygon fill="#000000" points="531.056,648.263,523.2331,642.2795,526.1931,647.1001,521.3725,650.0602,531.056,648.263" style="stroke: #000000; stroke-width: 0.5;"/><!--MD5=[2d4c57e130b389ac4e19190cc1aa3760]
link carBrandRouter to checkRoleMiddleware--><path d="M388.503,593.181 C425.245,585.479 476.747,574.681 517.113,566.219 " fill="none" id="carBrandRouter-&gt;checkRoleMiddleware" style="stroke: #000000; stroke-width: 0.5;"/><polygon fill="#000000" points="522.48,565.094,512.8503,563.0278,517.5866,566.121,514.4934,570.8572,522.48,565.094" style="stroke: #000000; stroke-width: 0.5;"/><!--MD5=[0cddd27af28dc6d107b250e79cd359fb]
link carController to models--><path d="M637.426,708.474 C654.854,705.404 672.979,699.158 686.167,687 C752.991,625.398 761.248,506.189 761.853,460.468 " fill="none" id="carController-&gt;models" style="stroke: #000000; stroke-width: 0.5;"/><polygon fill="#000000" points="761.892,455.265,757.8253,464.235,761.8549,460.2649,765.825,464.2945,761.892,455.265" style="stroke: #000000; stroke-width: 0.5;"/><!--MD5=[af997dc7c01964e1d3506d6dbf13e66b]
link carRouter to carController--><path d="M378.137,659.013 C396.02,663.138 417.822,668.457 437.167,674 C454.732,679.032 458.557,682.132 476.167,687 C494.251,691.999 514.337,696.648 531.997,700.44 " fill="none" id="carRouter-&gt;carController" style="stroke: #000000; stroke-width: 0.5;"/><polygon fill="#000000" points="536.91,701.486,528.9406,695.699,532.0197,700.4445,527.2742,703.5236,536.91,701.486" style="stroke: #000000; stroke-width: 0.5;"/><!--MD5=[0c0bd9e1bb1b2110f70f4fd0cedd2887]
link carRouter to checkRoleMiddleware--><path d="M385.324,646.503 C402.456,643.252 421.68,637.65 437.167,628 C460.205,613.645 453.323,595.661 476.167,581 C486.934,574.09 499.374,568.874 511.824,564.939 " fill="none" id="carRouter-&gt;checkRoleMiddleware" style="stroke: #000000; stroke-width: 0.5;"/><polygon fill="#000000" points="516.779,563.439,507.0061,562.2179,511.9934,564.8875,509.3238,569.8748,516.779,563.439" style="stroke: #000000; stroke-width: 0.5;"/><!--MD5=[97cad5d3d9bb2819acb5ded029ad981a]
link carWashController to models--><path d="M648.139,754.598 C662.181,750.631 675.861,744.224 686.167,734 C725.781,694.704 751.764,518.455 759.357,460.521 " fill="none" id="carWashController-&gt;models" style="stroke: #000000; stroke-width: 0.5;"/><polygon fill="#000000" points="760.034,455.293,754.9101,463.704,759.3912,460.2515,762.8437,464.7326,760.034,455.293" style="stroke: #000000; stroke-width: 0.5;"/><!--MD5=[521833b90f26ed4e00b526e99eb1d632]
link carWashRouter to carWashController--><path d="M383.444,709.982 C409.984,716.93 445.072,726.068 476.167,734 C492.674,738.211 510.672,742.734 526.985,746.809 " fill="none" id="carWashRouter-&gt;carWashController" style="stroke: #000000; stroke-width: 0.5;"/><polygon fill="#000000" points="531.99,748.058,524.2255,741.9989,527.1386,746.848,522.2895,749.7611,531.99,748.058" style="stroke: #000000; stroke-width: 0.5;"/><!--MD5=[d5870fb7232bce165e0985aab4c7d94b]
link carWashRouter to checkRoleMiddleware--><path d="M398.346,693.089 C412.276,689.373 426.296,683.437 437.167,674 C471.015,644.619 442.422,610.499 476.167,581 C485.098,573.193 495.989,567.536 507.32,563.443 " fill="none" id="carWashRouter-&gt;checkRoleMiddleware" style="stroke: #000000; stroke-width: 0.5;"/><polygon fill="#000000" points="512.199,561.782,502.3901,560.8962,507.4658,563.3935,504.9685,568.4693,512.199,561.782" style="stroke: #000000; stroke-width: 0.5;"/><!--MD5=[a146aeee51127ef9f89e8b09e71184dd]
link clientCarController to models--><path d="M648.42,807.876 C662.45,803.898 676.055,797.415 686.167,787 C732.487,739.292 754.515,524.761 760.163,460.345 " fill="none" id="clientCarController-&gt;models" style="stroke: #000000; stroke-width: 0.5;"/><polygon fill="#000000" points="760.601,455.275,755.8418,463.8977,760.171,460.2565,763.8122,464.5857,760.601,455.275" style="stroke: #000000; stroke-width: 0.5;"/><!--MD5=[c24d1f250c5a04d72b4fabe3985a0130]
link clientCarRouter to checkRoleMiddleware--><path d="M400.207,743.754 C413.792,740.004 427.179,733.887 437.167,724 C483.987,677.657 429.51,627.506 476.167,581 C484.395,572.799 494.754,566.93 505.725,562.743 " fill="none" id="clientCarRouter-&gt;checkRoleMiddleware" style="stroke: #000000; stroke-width: 0.5;"/><polygon fill="#000000" points="510.46,561.05,500.6387,560.3133,505.7518,562.7332,503.3319,567.8463,510.46,561.05" style="stroke: #000000; stroke-width: 0.5;"/><!--MD5=[ee571b5e1056661daaef30caea747707]
link clientCarRouter to clientCarController--><path d="M385.096,759.726 C401.482,763.942 420.246,768.971 437.167,774 C454.681,779.205 458.625,781.892 476.167,787 C492.118,791.645 509.59,796.212 525.583,800.19 " fill="none" id="clientCarRouter-&gt;clientCarController" style="stroke: #000000; stroke-width: 0.5;"/><polygon fill="#000000" points="530.496,801.406,522.7189,795.3631,525.6421,800.2061,520.7991,803.1293,530.496,801.406" style="stroke: #000000; stroke-width: 0.5;"/><!--MD5=[efcb405ecb6677b65a6ed40826c1e604]
link clientController to models--><path d="M642.334,861.921 C658.504,858.485 674.673,851.955 686.167,840 C739.73,784.289 756.97,530.902 760.777,460.306 " fill="none" id="clientController-&gt;models" style="stroke: #000000; stroke-width: 0.5;"/><polygon fill="#000000" points="761.048,455.168,756.5804,463.9453,760.7851,460.1611,764.5693,464.3658,761.048,455.168" style="stroke: #000000; stroke-width: 0.5;"/><!--MD5=[a1b9398d2c7659ba4d39d48e00b9ac1a]
link clientRouter to checkRoleMiddleware--><path d="M394.134,794.993 C409.875,791.841 425.925,785.666 437.167,774 C497.894,710.987 416.286,644.816 476.167,581 C483.934,572.723 493.865,566.797 504.497,562.572 " fill="none" id="clientRouter-&gt;checkRoleMiddleware" style="stroke: #000000; stroke-width: 0.5;"/><polygon fill="#000000" points="509.426,560.748,499.5973,560.1178,504.7364,562.4822,502.372,567.6212,509.426,560.748" style="stroke: #000000; stroke-width: 0.5;"/><!--MD5=[0ed084f25c260f6667df1d97272f0015]
link clientRouter to clientController--><path d="M372.435,807.636 C399.556,816.82 440.236,830.129 476.167,840 C493.494,844.76 512.616,849.358 529.687,853.233 " fill="none" id="clientRouter-&gt;clientController" style="stroke: #000000; stroke-width: 0.5;"/><polygon fill="#000000" points="534.915,854.411,527.0152,848.5294,530.0374,853.3112,525.2556,856.3335,534.915,854.411" style="stroke: #000000; stroke-width: 0.5;"/><!--MD5=[149aee2a5d829fe2c56cd202530b5437]
link discountController to models--><path d="M646.176,179.999 C660.791,184.056 675.221,190.584 686.167,201 C750.873,262.575 760.407,378.766 761.603,423.655 " fill="none" id="discountController-&gt;models" style="stroke: #000000; stroke-width: 0.5;"/><polygon fill="#000000" points="761.711,428.768,765.5198,419.6854,761.6053,423.7691,757.5216,419.8546,761.711,428.768" style="stroke: #000000; stroke-width: 0.5;"/><!--MD5=[3ecf40ca829d00cd30b08c3bc61651cf]
link discountRouter to checkRoleMiddleware--><path d="M400.187,203.057 C414.103,206.788 427.655,213.194 437.167,224 C526.299,325.255 387.389,423.436 476.167,525 C483.584,533.485 493.273,539.527 503.753,543.805 " fill="none" id="discountRouter-&gt;checkRoleMiddleware" style="stroke: #000000; stroke-width: 0.5;"/><polygon fill="#000000" points="508.618,545.649,501.6189,538.7199,503.9423,543.8776,498.7846,546.201,508.618,545.649" style="stroke: #000000; stroke-width: 0.5;"/><!--MD5=[6ae294fac89129a3aee1831066c4ba78]
link discountRouter to discountController--><path d="M397.284,193.17 C431.526,189.581 475.667,184.954 512.004,181.145 " fill="none" id="discountRouter-&gt;discountController" style="stroke: #000000; stroke-width: 0.5;"/><polygon fill="#000000" points="517.306,180.589,507.9379,177.5494,512.3333,181.1104,508.7722,185.5057,517.306,180.589" style="stroke: #000000; stroke-width: 0.5;"/><!--MD5=[c025f37f8b4c1bdd544142eaa4ac6d30]
link ErrorHandlingMiddleware to apiError--><path d="M131.082,775.927 C151.247,806.785 193.959,866.194 244.167,901 C408.64,1015.0187 486.043,988.3253 686.167,987 C697.194,986.927 709.126,986.794 720.177,986.6483 " fill="none" id="ErrorHandlingMiddleware-&gt;apiError" style="stroke: #000000; stroke-width: 0.5;"/><polygon fill="#000000" points="725.187,986.5806,716.133,982.7044,720.1875,986.6492,716.2427,990.7037,725.187,986.5806" style="stroke: #000000; stroke-width: 0.5;"/><!--MD5=[4ef995c05e45f6b9da1dbee41f7d80db]
link <b>index</b> to db--><path d="M123.817,228.958 C137.56,196.16 178.585,110.415 244.167,76 C418.16,-15.31 505.3,-10.79 686.167,66 C763.393,98.789 822.291,186.72 844.042,223.004 " fill="none" id="&lt;b&gt;index&lt;/b&gt;-&gt;db" style="stroke: #000000; stroke-width: 1.0;"/><polygon fill="#000000" points="846.745,227.569,845.6011,217.7868,844.1974,223.2667,838.7174,221.863,846.745,227.569" style="stroke: #000000; stroke-width: 1.0;"/><!--MD5=[1f3c1e002298859106824bdadf39186b]
link <b>index</b> to ErrorHandlingMiddleware--><path d="M108.945,254.677 C87.0647,287.346 30.2025,377.823 10.6673,463 C-13.0112,566.243 61.957,682.765 98.6528,732.005 " fill="none" id="&lt;b&gt;index&lt;/b&gt;-&gt;ErrorHandlingMiddleware" style="stroke: #000000; stroke-width: 1.0;"/><polygon fill="#000000" points="101.867,736.277,99.6509,726.6807,98.8603,732.282,93.259,731.4914,101.867,736.277" style="stroke: #000000; stroke-width: 1.0;"/><!--MD5=[01c8f4f6779b3f5ac9367c764a63a13e]
link <b>index</b> to models--><path d="M126.449,229.221 C143.711,202.208 188.154,139.683 244.167,114 C333.503,73.038 609.568,37.427 686.167,99 C737.823,140.522 756.192,358.862 760.558,423.779 " fill="none" id="&lt;b&gt;index&lt;/b&gt;-&gt;models" style="stroke: #000000; stroke-width: 1.0;"/><polygon fill="#000000" points="760.894,428.883,764.294,419.6396,760.5655,423.8938,756.3113,420.1653,760.894,428.883" style="stroke: #000000; stroke-width: 1.0;"/><!--MD5=[fd138d533853b6a9e7a6e87d4aed7c8c]
link <b>index</b> to routes--><path d="M117.667,255.365 C117.667,322.737 117.667,390.109 117.667,457.481 " fill="none" id="&lt;b&gt;index&lt;/b&gt;-&gt;routes" style="stroke: #000000; stroke-width: 1.0;"/><polygon fill="#000000" points="117.667,462.746,121.667,453.746,117.667,457.746,113.667,453.746,117.667,462.746" style="stroke: #000000; stroke-width: 1.0;"/><!--MD5=[2e5d5e2a88585b5ad5bd25cd6d45db77]
link models to db--><path d="M769.402,428.993 C785.058,393.483 828.513,294.921 845.869,255.554 " fill="none" id="models-&gt;db" style="stroke: #000000; stroke-width: 0.5;"/><polygon fill="#000000" points="848.044,250.62,840.7527,257.2409,846.0266,255.1949,848.0726,260.4688,848.044,250.62" style="stroke: #000000; stroke-width: 0.5;"/><!--MD5=[fb00971c5f6350f171ae25dac971b639]
link orderController to models--><path d="M640.471,230.644 C656.78,234.411 673.491,240.909 686.167,252 C738.746,298.001 755.105,385.577 759.858,423.609 " fill="none" id="orderController-&gt;models" style="stroke: #000000; stroke-width: 0.5;"/><polygon fill="#000000" points="760.478,428.849,763.3906,419.4407,759.8893,423.8838,755.4462,420.3825,760.478,428.849" style="stroke: #000000; stroke-width: 0.5;"/><!--MD5=[4c272c56d90eb11d5708c2520e805830]
link orderRouter to checkRoleMiddleware--><path d="M394.502,249.287 C410.265,252.589 426.235,258.99 437.167,271 C514.05,355.46 399.996,439.898 476.167,525 C483.737,533.458 493.565,539.479 504.154,543.743 " fill="none" id="orderRouter-&gt;checkRoleMiddleware" style="stroke: #000000; stroke-width: 0.5;"/><polygon fill="#000000" points="509.067,545.581,502.0385,538.6817,504.3838,543.8295,499.2361,546.1748,509.067,545.581" style="stroke: #000000; stroke-width: 0.5;"/><!--MD5=[67b0fa5ad0501367b835a0170bfb904d]
link orderRouter to orderController--><path d="M392.247,242.546 C428.758,239.332 478.296,234.97 517.344,231.532 " fill="none" id="orderRouter-&gt;orderController" style="stroke: #000000; stroke-width: 0.5;"/><polygon fill="#000000" points="522.538,231.074,513.2218,227.879,517.5573,231.5126,513.9236,235.8481,522.538,231.074" style="stroke: #000000; stroke-width: 0.5;"/><!--MD5=[2deae8f07cabebf59211fee63088302a]
link orderServiceRelationController to models--><path d="M655.434,301.633 C666.405,306.133 677.071,311.821 686.167,319 C722.089,347.349 745.183,397.851 755.469,424.468 " fill="none" id="orderServiceRelationController-&gt;models" style="stroke: #000000; stroke-width: 0.5;"/><polygon fill="#000000" points="757.241,429.15,757.7956,419.3168,755.4708,424.4738,750.3138,422.149,757.241,429.15" style="stroke: #000000; stroke-width: 0.5;"/><!--MD5=[aaecad842830acf6421f2d50a3619c1e]
link orderServiceRelationRouter to checkRoleMiddleware--><path d="M413.098,316.417 C422.164,320.81 430.562,326.536 437.167,334 C494.586,398.882 416.818,461.879 476.167,525 C483.943,533.269 493.878,539.191 504.512,543.414 " fill="none" id="orderServiceRelationRouter-&gt;checkRoleMiddleware" style="stroke: #000000; stroke-width: 0.5;"/><polygon fill="#000000" points="509.442,545.237,502.3887,538.3631,504.7525,543.5024,499.6133,545.8663,509.442,545.237" style="stroke: #000000; stroke-width: 0.5;"/><!--MD5=[a61e8e9bf2b102ad275d9c3484277880]
link orderServiceRelationRouter to orderServiceRelationController--><path d="M432.855,295.5 C446.792,294.507 461.272,293.475 475.471,292.463 " fill="none" id="orderServiceRelationRouter-&gt;orderServiceRelationController" style="stroke: #000000; stroke-width: 0.5;"/><polygon fill="#000000" points="480.689,292.091,471.4272,288.7414,475.7017,292.4467,471.9964,296.7212,480.689,292.091" style="stroke: #000000; stroke-width: 0.5;"/><!--MD5=[7caac34f549a52d6ac49666cf692dd76]
link postController to models--><path d="M633.92,349.741 C651.274,353.456 670.246,359.185 686.167,368 C712.22,382.424 735.576,408.289 749.189,425.299 " fill="none" id="postController-&gt;models" style="stroke: #000000; stroke-width: 0.5;"/><polygon fill="#000000" points="752.436,429.421,750.0079,419.8762,749.3415,425.4936,743.7241,424.8273,752.436,429.421" style="stroke: #000000; stroke-width: 0.5;"/><!--MD5=[165acf506b0f1233535d2b7c84b27039]
link postRouter to checkRoleMiddleware--><path d="M392.71,359.239 C408.736,362.361 425.317,368.458 437.167,380 C484.975,426.561 428.985,477.806 476.167,525 C484.38,533.215 494.732,539.092 505.7,543.282 " fill="none" id="postRouter-&gt;checkRoleMiddleware" style="stroke: #000000; stroke-width: 0.5;"/><polygon fill="#000000" points="510.434,544.976,503.3071,538.1784,505.7261,543.292,500.6126,545.711,510.434,544.976" style="stroke: #000000; stroke-width: 0.5;"/><!--MD5=[fbf08f979a37a127aae03946c5c09697]
link postRouter to postController--><path d="M391.956,354.048 C428.709,351.891 478.777,348.952 518.034,346.647 " fill="none" id="postRouter-&gt;postController" style="stroke: #000000; stroke-width: 0.5;"/><polygon fill="#000000" points="523.254,346.341,514.0352,342.875,518.2626,346.6339,514.5037,350.8613,523.254,346.341" style="stroke: #000000; stroke-width: 0.5;"/><!--MD5=[b42d1516278144d560735e646c608910]
link roleController to models--><path d="M638.375,125.432 C655.664,128.85 673.465,135.492 686.167,148 C726.272,187.49 752.016,365.773 759.441,423.734 " fill="none" id="roleController-&gt;models" style="stroke: #000000; stroke-width: 0.5;"/><polygon fill="#000000" points="760.103,428.959,762.9424,419.5283,759.4758,423.9985,755.0056,420.5319,760.103,428.959" style="stroke: #000000; stroke-width: 0.5;"/><!--MD5=[e1cab63ac4ff9ad986dbfb551c36bffb]
link roleRouter to roleController--><path d="M389.072,134.217 C426.385,132.027 478.66,128.959 519.105,126.584 " fill="none" id="roleRouter-&gt;roleController" style="stroke: #000000; stroke-width: 0.5;"/><polygon fill="#000000" points="524.478,126.269,515.2582,122.8056,519.4867,126.5633,515.729,130.7918,524.478,126.269" style="stroke: #000000; stroke-width: 0.5;"/><!--MD5=[93ec24f3f457b6d2e69a63e4d95ef5f1]
link routes to carBodyRouter--><path d="M139.209,485.533 C163.796,496.703 206.389,515.295 244.167,528 C259.2,533.056 275.843,537.723 290.969,541.622 " fill="none" id="routes-&gt;carBodyRouter" style="stroke: #000000; stroke-width: 0.5;"/><polygon fill="#000000" points="296.035,542.914,288.3029,536.8136,291.1901,541.6781,286.3256,544.5653,296.035,542.914" style="stroke: #000000; stroke-width: 0.5;"/><!--MD5=[e3ab7a5a75e5d2f3d71a21f6bf2b44e2]
link routes to carBrandRouter--><path d="M129.904,488.033 C150.503,509.375 196.588,553.876 244.167,578 C256.692,584.35 270.983,589.197 284.626,592.851 " fill="none" id="routes-&gt;carBrandRouter" style="stroke: #000000; stroke-width: 0.5;"/><polygon fill="#000000" points="289.618,594.144,281.9092,588.0141,284.7779,592.8897,279.9023,595.7583,289.618,594.144" style="stroke: #000000; stroke-width: 0.5;"/><!--MD5=[e5db1da2fd23458d49958fac01150431]
link routes to carRouter--><path d="M125.479,488.986 C141.735,518.635 185.833,591.552 244.167,628 C258.071,636.687 274.999,642.093 290.72,645.458 " fill="none" id="routes-&gt;carRouter" style="stroke: #000000; stroke-width: 0.5;"/><polygon fill="#000000" points="295.999,646.522,287.9675,640.8216,291.0977,645.5335,286.3858,648.6637,295.999,646.522" style="stroke: #000000; stroke-width: 0.5;"/><!--MD5=[26d3d2e7f6b0613cdbbf2346064db48a]
link routes to carWashRouter--><path d="M123.04,489.006 C135.685,524.562 175.813,624.062 244.167,674 C254.674,681.676 267.348,686.998 279.98,690.687 " fill="none" id="routes-&gt;carWashRouter" style="stroke: #000000; stroke-width: 0.5;"/><polygon fill="#000000" points="285.004,692.071,277.39,685.8238,280.1837,690.7427,275.2648,693.5364,285.004,692.071" style="stroke: #000000; stroke-width: 0.5;"/><!--MD5=[1e3bd8ef168c7212a4ef1795ed10aa7c]
link routes to clientCarRouter--><path d="M121.331,489.176 C130.42,530.626 164.194,659.437 244.167,724 C254.056,731.983 266.23,737.439 278.534,741.162 " fill="none" id="routes-&gt;clientCarRouter" style="stroke: #000000; stroke-width: 0.5;"/><polygon fill="#000000" points="283.436,742.555,275.8725,736.2468,278.6265,741.188,273.6853,743.942,283.436,742.555" style="stroke: #000000; stroke-width: 0.5;"/><!--MD5=[d26c15ea4fb18d240e90a76268529c1e]
link routes to clientRouter--><path d="M122.413,488.935 C137.712,540.932 196.894,733.836 244.167,774 C255.164,783.343 269.323,789.022 283.354,792.439 " fill="none" id="routes-&gt;clientRouter" style="stroke: #000000; stroke-width: 0.5;"/><polygon fill="#000000" points="288.511,793.598,280.6063,787.723,283.6325,792.5023,278.8532,795.5285,288.511,793.598" style="stroke: #000000; stroke-width: 0.5;"/><!--MD5=[1a2cbf20eab158f60da10fd69f4686ed]
link routes to discountRouter--><path d="M123.409,463.212 C140.886,416.714 202.823,257.597 244.167,224 C254.265,215.794 266.774,210.257 279.374,206.526 " fill="none" id="routes-&gt;discountRouter" style="stroke: #000000; stroke-width: 0.5;"/><polygon fill="#000000" points="284.391,205.135,274.6495,203.6845,279.5727,206.4706,276.7866,211.3938,284.391,205.135" style="stroke: #000000; stroke-width: 0.5;"/><!--MD5=[29b2cef755087a6169b7b42c13fee9f2]
link routes to orderRouter--><path d="M122.698,463.031 C134.715,426.603 173.892,322.653 244.167,271 C255.945,262.344 270.508,256.792 284.682,253.237 " fill="none" id="routes-&gt;orderRouter" style="stroke: #000000; stroke-width: 0.5;"/><polygon fill="#000000" points="289.881,252.016,280.2044,250.1819,285.0137,253.1603,282.0353,257.9696,289.881,252.016" style="stroke: #000000; stroke-width: 0.5;"/><!--MD5=[632767f3ac6119bf24a1617f6cce724e]
link routes to orderServiceRelationRouter--><path d="M126.444,463.394 C144.027,435.909 189.587,370.163 244.167,334 C252.498,328.481 261.868,323.831 271.399,319.937 " fill="none" id="routes-&gt;orderServiceRelationRouter" style="stroke: #000000; stroke-width: 0.5;"/><polygon fill="#000000" points="276.086,318.086,266.2458,317.6728,271.4358,319.9232,269.1854,325.1132,276.086,318.086" style="stroke: #000000; stroke-width: 0.5;"/><!--MD5=[6c0583eeabba65b15093ff7e392a1a67]
link routes to postRouter--><path d="M130.673,463.974 C151.751,443.559 197.611,402.184 244.167,380 C258.414,373.211 274.84,368.325 290.008,364.853 " fill="none" id="routes-&gt;postRouter" style="stroke: #000000; stroke-width: 0.5;"/><polygon fill="#000000" points="295.098,363.73,285.4475,361.7633,290.2155,364.8074,287.1713,369.5753,295.098,363.73" style="stroke: #000000; stroke-width: 0.5;"/><!--MD5=[d1db3ac6efe8029e7b76c354933efe5b]
link routes to roleRouter--><path d="M123.927,463.197 C147.375,406.148 241.342,177.779 244.167,175 C258.236,161.159 277.974,152.185 295.857,146.455 " fill="none" id="routes-&gt;roleRouter" style="stroke: #000000; stroke-width: 0.5;"/><polygon fill="#000000" points="300.845,144.924,291.0674,143.7417,296.0652,146.3915,293.4154,151.3894,300.845,144.924" style="stroke: #000000; stroke-width: 0.5;"/><!--MD5=[798bb119c02f4383a38097a5b4ab32bc]
link routes to staffRouter--><path d="M140.134,466.661 C164.889,456.117 206.959,438.887 244.167,427 C260.844,421.672 279.46,416.767 295.796,412.798 " fill="none" id="routes-&gt;staffRouter" style="stroke: #000000; stroke-width: 0.5;"/><polygon fill="#000000" points="300.788,411.597,291.1019,409.8139,295.9268,412.7669,292.9738,417.5919,300.788,411.597" style="stroke: #000000; stroke-width: 0.5;"/><!--MD5=[ce046943a6f33982f43e84c79f0c4d84]
link routes to statusRouter--><path d="M148.472,472.494 C183.23,468.404 241.409,461.56 284.48,456.493 " fill="none" id="routes-&gt;statusRouter" style="stroke: #000000; stroke-width: 0.5;"/><polygon fill="#000000" points="289.655,455.884,280.2492,452.9631,284.6893,456.4683,281.1841,460.9083,289.655,455.884" style="stroke: #000000; stroke-width: 0.5;"/><!--MD5=[8281c8816f71fa776654a37e913ef7c8]
link routes to userRouter--><path d="M123.103,488.895 C144.081,549.786 232.797,806.15 244.167,820 C260.76,840.211 286.359,855.219 306.878,864.9 " fill="none" id="routes-&gt;userRouter" style="stroke: #000000; stroke-width: 0.5;"/><polygon fill="#000000" points="311.44,867.005,304.945,859.6013,306.9003,864.9094,301.5921,866.8647,311.44,867.005" style="stroke: #000000; stroke-width: 0.5;"/><!--MD5=[bf7cc91f2c75f98cc264bf30409b6e4f]
link routes to washServiceRouter--><path d="M148.472,479.372 C179.368,482.867 228.768,488.455 269.615,493.076 " fill="none" id="routes-&gt;washServiceRouter" style="stroke: #000000; stroke-width: 0.5;"/><polygon fill="#000000" points="275.063,493.692,266.569,488.7068,270.0946,493.1306,265.6708,496.6562,275.063,493.692" style="stroke: #000000; stroke-width: 0.5;"/><!--MD5=[944396309d3a17bd758f14185c9b2434]
link staffController to models--><path d="M625.896,401.653 C644.56,405.994 666.524,411.397 686.167,417 C701.304,421.317 717.932,426.747 731.721,431.442 " fill="none" id="staffController-&gt;models" style="stroke: #000000; stroke-width: 0.5;"/><polygon fill="#000000" points="736.664,433.136,729.4456,426.4356,731.9337,431.5159,726.8535,434.004,736.664,433.136" style="stroke: #000000; stroke-width: 0.5;"/><!--MD5=[78b653e206f1dc424e08a0017500bb99]
link staffRouter to checkRoleMiddleware--><path d="M391.493,406.53 C407.613,409.86 424.562,415.964 437.167,427 C472.437,457.88 441.158,493.825 476.167,525 C484.965,532.834 495.731,538.508 506.964,542.611 " fill="none" id="staffRouter-&gt;checkRoleMiddleware" style="stroke: #000000; stroke-width: 0.5;"/><polygon fill="#000000" points="511.802,544.274,504.5915,537.5652,507.0736,542.6484,501.9905,545.1305,511.802,544.274" style="stroke: #000000; stroke-width: 0.5;"/><!--MD5=[fd789fc696095b44c5771659cd22686c]
link staffRouter to staffController--><path d="M392.539,400.654 C428.937,398.975 478.171,396.704 517.074,394.91 " fill="none" id="staffRouter-&gt;staffController" style="stroke: #000000; stroke-width: 0.5;"/><polygon fill="#000000" points="522.249,394.671,513.0735,391.0919,517.2544,394.9024,513.4438,399.0833,522.249,394.671" style="stroke: #000000; stroke-width: 0.5;"/><!--MD5=[640089a0a94499bacfccb69ec7aa3653]
link statusController to models--><path d="M645.2,442 C670.933,442 699.89,442 722.493,442 " fill="none" id="statusController-&gt;models" style="stroke: #000000; stroke-width: 0.5;"/><polygon fill="#000000" points="727.508,442,718.508,438,722.508,442,718.508,446,727.508,442" style="stroke: #000000; stroke-width: 0.5;"/><!--MD5=[0010f965f7e56b1006e011be1f34c810]
link statusRouter to checkRoleMiddleware--><path d="M391.869,456.055 C407.302,459.583 423.744,465.165 437.167,474 C461.003,489.687 452.464,509.113 476.167,525 C486.657,532.031 498.85,537.301 511.118,541.249 " fill="none" id="statusRouter-&gt;checkRoleMiddleware" style="stroke: #000000; stroke-width: 0.5;"/><polygon fill="#000000" points="516.003,542.753,508.5769,536.2836,511.224,541.2829,506.2247,543.93,516.003,542.753" style="stroke: #000000; stroke-width: 0.5;"/><!--MD5=[9bf44ef6dd4983b0ba17016f874efe44]
link statusRouter to statusController--><path d="M396.683,448.155 C431.037,447.002 475.527,445.51 512.094,444.283 " fill="none" id="statusRouter-&gt;statusController" style="stroke: #000000; stroke-width: 0.5;"/><polygon fill="#000000" points="517.43,444.104,508.3013,440.4071,512.4328,444.2711,508.5687,448.4026,517.43,444.104" style="stroke: #000000; stroke-width: 0.5;"/><!--MD5=[d434fe403a7369ac37a84ca83d43bcb5]
link userController to apiError--><path d="M633.605,969.5909 C661.77,973.1998 696.133,977.6029 722.17,980.9391 " fill="none" id="userController-&gt;apiError" style="stroke: #000000; stroke-width: 0.5;"/><polygon fill="#000000" points="727.262,981.5915,718.8436,976.4797,722.3026,980.9558,717.8265,984.4148,727.262,981.5915" style="stroke: #000000; stroke-width: 0.5;"/><!--MD5=[da21cbfa3eb2001798a30f52e5398428]
link userController to models--><path d="M640.175,961.6795 C657.161,958.4053 674.328,951.7758 686.167,939 C752.354,867.579 760.52,543.053 761.526,460.929 " fill="none" id="userController-&gt;models" style="stroke: #000000; stroke-width: 0.5;"/><polygon fill="#000000" points="761.587,455.441,757.4895,464.397,761.5327,460.4407,765.4891,464.4839,761.587,455.441" style="stroke: #000000; stroke-width: 0.5;"/><!--MD5=[2b30949e19853a5401b5ea18198f9619]
link userRouter to authMiddleware--><path d="M385.69,884.645 C424.233,890.463 480.497,898.955 522.602,905.311 " fill="none" id="userRouter-&gt;authMiddleware" style="stroke: #000000; stroke-width: 0.5;"/><polygon fill="#000000" points="527.665,906.0751,519.3622,900.7775,522.7209,905.3294,518.1691,908.6881,527.665,906.0751" style="stroke: #000000; stroke-width: 0.5;"/><!--MD5=[4ed48a5dcd93c24346f7aca812c92a50]
link userRouter to checkRoleMiddleware--><path d="M371.996,867.517 C393.676,858.4 421.656,842.997 437.167,820 C497.349,730.771 404.012,660.857 476.167,581 C483.777,572.578 493.625,566.576 504.223,562.319 " fill="none" id="userRouter-&gt;checkRoleMiddleware" style="stroke: #000000; stroke-width: 0.5;"/><polygon fill="#000000" points="509.139,560.484,499.3084,559.884,504.4547,562.2326,502.1061,567.3789,509.139,560.484" style="stroke: #000000; stroke-width: 0.5;"/><!--MD5=[9a18bd0320e82baa1f28549cb1361d87]
link userRouter to userController--><path d="M363.956,889.774 C390.191,903.2371 435.365,925.193 476.167,939 C493.108,944.7326 512.058,949.554 529.093,953.3364 " fill="none" id="userRouter-&gt;userController" style="stroke: #000000; stroke-width: 0.5;"/><polygon fill="#000000" points="534.314,954.4768,526.3751,948.6481,529.4292,953.4097,524.6677,956.4638,534.314,954.4768" style="stroke: #000000; stroke-width: 0.5;"/><!--MD5=[81227fa850c2a71b50940fd9edd63c18]
link washServiceController to models--><path d="M634.417,481.956 C651.011,477.355 669.403,472.11 686.167,467 C701.106,462.447 717.583,457.036 731.323,452.416 " fill="none" id="washServiceController-&gt;models" style="stroke: #000000; stroke-width: 0.5;"/><polygon fill="#000000" points="736.253,450.752,726.4462,449.8423,731.5159,452.352,729.0062,457.4216,736.253,450.752" style="stroke: #000000; stroke-width: 0.5;"/><!--MD5=[4b7b775ca3909629c5e28d6f44923646]
link washServiceRouter to checkRoleMiddleware--><path d="M394.302,512.476 C430.931,520.462 479.905,531.14 518.386,539.53 " fill="none" id="washServiceRouter-&gt;checkRoleMiddleware" style="stroke: #000000; stroke-width: 0.5;"/><polygon fill="#000000" points="523.504,540.646,515.562,534.8216,518.6186,539.5815,513.8587,542.6382,523.504,540.646" style="stroke: #000000; stroke-width: 0.5;"/><!--MD5=[fc378f0cea139eccd74d34af6dab5cee]
link washServiceRouter to washServiceController--><path d="M412.902,499.507 C438.639,498.967 467.957,498.352 494.783,497.79 " fill="none" id="washServiceRouter-&gt;washServiceController" style="stroke: #000000; stroke-width: 0.5;"/><polygon fill="#000000" points="500.113,497.678,491.0304,493.8692,495.1141,497.7837,491.1996,501.8674,500.113,497.678" style="stroke: #000000; stroke-width: 0.5;"/><script type="text/plantuml"><![CDATA[MD5=[9bbdbc44f5d35b6e576e253b3d186c97]
@startuml

scale max 1920 width
left to right direction

skinparam nodesep 20
skinparam ranksep 39
skinparam monochrome true
skinparam shadowing false
skinparam defaultFontName Tahoma
skinparam defaultFontSize 12
skinparam roundCorner 6
skinparam dpi 150
skinparam arrowColor black
skinparam arrowThickness 0.5
skinparam packageTitleAlignment left

skinparam usecase {
  borderThickness 0.5
}

skinparam rectangle {
  borderThickness 0.5
}

skinparam component {
  borderThickness 1
}


(apiError)
(authMiddleware)
(carBodyController)
(carBodyRouter)
(carBrandController)
(carBrandRouter)
(carController)
(carRouter)
(carWashController)
(carWashRouter)
(checkRoleMiddleware)
(clientCarController)
(clientCarRouter)
(clientController)
(clientRouter)
(db)
(discountController)
(discountRouter)
(ErrorHandlingMiddleware)
(<b>index</b>)
(models)
(orderController)
(orderRouter)
(orderServiceRelationController)
(orderServiceRelationRouter)
(postController)
(postRouter)
(roleController)
(roleRouter)
(routes)
(staffController)
(staffRouter)
(statusController)
(statusRouter)
(userController)
(userRouter)
(washServiceController)
(washServiceRouter)


(carBodyController) --> (models)
(carBodyRouter) --> (carBodyController)
(carBodyRouter) --> (checkRoleMiddleware)
(carBrandController) --> (models)
(carBrandRouter) --> (carBrandController)
(carBrandRouter) --> (checkRoleMiddleware)
(carController) --> (models)
(carRouter) --> (carController)
(carRouter) --> (checkRoleMiddleware)
(carWashController) --> (models)
(carWashRouter) --> (carWashController)
(carWashRouter) --> (checkRoleMiddleware)
(clientCarController) --> (models)
(clientCarRouter) --> (checkRoleMiddleware)
(clientCarRouter) --> (clientCarController)
(clientController) --> (models)
(clientRouter) --> (checkRoleMiddleware)
(clientRouter) --> (clientController)
(discountController) --> (models)
(discountRouter) --> (checkRoleMiddleware)
(discountRouter) --> (discountController)
(ErrorHandlingMiddleware) --> (apiError)
(<b>index</b>) -[thickness=1]> (db)
(<b>index</b>) -[thickness=1]> (ErrorHandlingMiddleware)
(<b>index</b>) -[thickness=1]> (models)
(<b>index</b>) -[thickness=1]> (routes)
(models) --> (db)
(orderController) --> (models)
(orderRouter) --> (checkRoleMiddleware)
(orderRouter) --> (orderController)
(orderServiceRelationController) --> (models)
(orderServiceRelationRouter) --> (checkRoleMiddleware)
(orderServiceRelationRouter) --> (orderServiceRelationController)
(postController) --> (models)
(postRouter) --> (checkRoleMiddleware)
(postRouter) --> (postController)
(roleController) --> (models)
(roleRouter) --> (roleController)
(routes) --> (carBodyRouter)
(routes) --> (carBrandRouter)
(routes) --> (carRouter)
(routes) --> (carWashRouter)
(routes) --> (clientCarRouter)
(routes) --> (clientRouter)
(routes) --> (discountRouter)
(routes) --> (orderRouter)
(routes) --> (orderServiceRelationRouter)
(routes) --> (postRouter)
(routes) --> (roleRouter)
(routes) --> (staffRouter)
(routes) --> (statusRouter)
(routes) --> (userRouter)
(routes) --> (washServiceRouter)
(staffController) --> (models)
(staffRouter) --> (checkRoleMiddleware)
(staffRouter) --> (staffController)
(statusController) --> (models)
(statusRouter) --> (checkRoleMiddleware)
(statusRouter) --> (statusController)
(userController) --> (apiError)
(userController) --> (models)
(userRouter) --> (authMiddleware)
(userRouter) --> (checkRoleMiddleware)
(userRouter) --> (userController)
(washServiceController) --> (models)
(washServiceRouter) --> (checkRoleMiddleware)
(washServiceRouter) --> (washServiceController)

@enduml


' View and edit on https://arkit.pro
]]></script></g></svg>